<svg width="39" height="29" viewBox="0 0 39 29" fill="none" xmlns="http://www.w3.org/2000/svg">
<path d="M17.0744 2.76072C14.5336 1.52258 11.6793 0.827881 8.66277 0.827881C5.6462 0.827881 2.79189 1.52258 0.251099 2.76072V26.7941C2.79189 25.5559 5.6462 24.8612 8.66277 24.8612C12.673 24.8612 16.3964 26.089 19.4778 28.1891C22.5591 26.089 26.2826 24.8612 30.2928 24.8612C33.3093 24.8612 36.1636 25.5559 38.7044 26.7941V2.76072C36.1636 1.52258 33.3093 0.827881 30.2928 0.827881C27.2762 0.827881 24.4219 1.52258 21.8811 2.76072V20.0545C21.8811 21.3819 20.8051 22.4579 19.4778 22.4579C18.1504 22.4579 17.0744 21.3819 17.0744 20.0545V2.76072Z" fill="#382C2C"/>
</svg>
