<svg width="20" height="20" viewBox="0 0 20 20" fill="none" xmlns="http://www.w3.org/2000/svg">
<path d="M0.712158 1.74677C0.712158 1.08311 1.25016 0.545105 1.91382 0.545105H4.50086C5.08828 0.545105 5.58961 0.96979 5.68618 1.54922L6.57458 6.87966C6.66131 7.40002 6.39851 7.91609 5.92667 8.15202L4.06632 9.08219C5.40774 12.4156 8.06838 15.0762 11.4017 16.4176L12.3319 14.5573C12.5678 14.0854 13.0839 13.8226 13.6043 13.9093L18.9347 14.7978C19.5141 14.8943 19.9388 15.3956 19.9388 15.9831V18.5701C19.9388 19.2338 19.4008 19.7718 18.7372 19.7718H16.3338C7.70622 19.7718 0.712158 12.7777 0.712158 4.15011V1.74677Z" fill="#937DC2"/>
</svg>
