<svg width="17" height="17" viewBox="0 0 17 17" fill="none" xmlns="http://www.w3.org/2000/svg">
<path opacity="0.6" fill-rule="evenodd" clip-rule="evenodd" d="M6.49344 2.01605C4.28123 2.01605 2.48789 3.8094 2.48789 6.02161C2.48789 8.23382 4.28123 10.0272 6.49344 10.0272C8.70565 10.0272 10.499 8.23382 10.499 6.02161C10.499 3.8094 8.70565 2.01605 6.49344 2.01605ZM0.485107 6.02161C0.485107 2.7033 3.17513 0.0132751 6.49344 0.0132751C9.81175 0.0132751 12.5018 2.7033 12.5018 6.02161C12.5018 7.31924 12.0904 8.52079 11.391 9.50297L16.214 14.326C16.6051 14.7171 16.6051 15.3511 16.214 15.7422C15.823 16.1333 15.1889 16.1333 14.7979 15.7422L9.9748 10.9191C8.99262 11.6186 7.79107 12.0299 6.49344 12.0299C3.17513 12.0299 0.485107 9.33992 0.485107 6.02161Z" fill="#231F2D"/>
</svg>
