<svg width="40" height="35" viewBox="0 0 40 35" fill="none" xmlns="http://www.w3.org/2000/svg">
<path d="M15.3995 30.8668C15.3995 32.8578 13.7855 34.4718 11.7945 34.4718C9.8035 34.4718 8.18949 32.8578 8.18949 30.8668C8.18949 28.8758 9.8035 27.2618 11.7945 27.2618C13.7855 27.2618 15.3995 28.8758 15.3995 30.8668Z" fill="#382C2C"/>
<path d="M32.2228 30.8668C32.2228 32.8578 30.6088 34.4718 28.6178 34.4718C26.6268 34.4718 25.0128 32.8578 25.0128 30.8668C25.0128 28.8758 26.6268 27.2618 28.6178 27.2618C30.6088 27.2618 32.2228 28.8758 32.2228 30.8668Z" fill="#382C2C"/>
<path d="M3.38282 0.825134C2.0555 0.825134 0.979492 1.90114 0.979492 3.22847V27.2618C0.979492 28.5891 2.0555 29.6651 3.38282 29.6651H5.90634C6.46304 26.9226 8.88771 24.8585 11.7945 24.8585C14.7013 24.8585 17.1259 26.9226 17.6826 29.6651H20.2061C21.5335 29.6651 22.6095 28.5891 22.6095 27.2618V3.22847C22.6095 1.90114 21.5335 0.825134 20.2061 0.825134H3.38282Z" fill="#382C2C"/>
<path d="M29.8195 8.03513C28.4921 8.03513 27.4161 9.11114 27.4161 10.4385V24.9786C27.8044 24.8998 28.2063 24.8585 28.6178 24.8585C31.5246 24.8585 33.9492 26.9226 34.5059 29.6651H37.0295C38.3568 29.6651 39.4328 28.5891 39.4328 27.2618V15.2451C39.4328 14.6077 39.1796 13.9964 38.7289 13.5457L33.9222 8.73905C33.4715 8.28834 32.8602 8.03513 32.2228 8.03513H29.8195Z" fill="#382C2C"/>
</svg>
