<svg width="42" height="41" viewBox="0 0 42 41" fill="none" xmlns="http://www.w3.org/2000/svg">
<path d="M19.8739 1.14571C20.1737 0.223125 21.4789 0.223125 21.7787 1.14572L25.9973 14.1293C26.1314 14.5419 26.5158 14.8212 26.9497 14.8212H40.6014C41.5715 14.8212 41.9748 16.0626 41.19 16.6328L30.1455 24.657C29.7945 24.912 29.6477 25.364 29.7817 25.7766L34.0004 38.7602C34.3001 39.6828 33.2442 40.45 32.4594 39.8798L21.4149 31.8555C21.0639 31.6005 20.5887 31.6005 20.2377 31.8555L9.19322 39.8798C8.40842 40.45 7.35247 39.6828 7.65224 38.7602L11.8709 25.7766C12.0049 25.364 11.8581 24.912 11.5071 24.657L0.462599 16.6328C-0.322203 16.0626 0.0811334 14.8212 1.0512 14.8212H14.7029C15.1368 14.8212 15.5212 14.5419 15.6553 14.1293L19.8739 1.14571Z" fill="#382C2C"/>
</svg>
